HIERARCHY
ROOT Pelvis
{
	OFFSET 0.000000 0.941512 0.000000
	CHANNELS 6 Xposition Yposition Zposition Zrotation Yrotation Xrotation 
	JOINT Pelvis_L_Hip
	{
		OFFSET 0.000000 0.000000 0.000000
		CHANNELS 3 Zrotation Yrotation Xrotation
		JOINT L_Hip
		{
			OFFSET 0.062321 -0.080322 -0.016990
			CHANNELS 3 Zrotation Yrotation Xrotation
			JOINT L_Knee
			{
				OFFSET 0.093051 -0.381305 -0.029784
				CHANNELS 3 Zrotation Yrotation Xrotation
				JOINT L_Ankle
				{
					OFFSET -0.010371 -0.431000 -0.033614
					CHANNELS 3 Zrotation Yrotation Xrotation
					End Site #name: L_Foot
					{
						OFFSET 0.069299 -0.038670 0.119418
					}
				}
			}
		}
	}
	JOINT Pelvis_R_Hip
	{
		OFFSET 0.000000 0.000000 0.000000
		CHANNELS 3 Zrotation Yrotation Xrotation
		JOINT R_Hip
		{
			OFFSET -0.055334 -0.094904 -0.002373
			CHANNELS 3 Zrotation Yrotation Xrotation
			JOINT R_Knee
			{
				OFFSET -0.064207 -0.384370 -0.019592
				CHANNELS 3 Zrotation Yrotation Xrotation
				JOINT R_Ankle
				{
					OFFSET 0.025418 -0.419734 -0.065953
					CHANNELS 3 Zrotation Yrotation Xrotation
					End Site #name: R_Foot
					{
						OFFSET -0.057233 -0.039888 0.132134
					}
				}
			}
		}
	}
	JOINT Pelvis_Spine1
	{
		OFFSET 0.000000 0.000000 0.000000
		CHANNELS 3 Zrotation Yrotation Xrotation
		JOINT Spine1
		{
			OFFSET -0.005562 0.124093 -0.043360
			CHANNELS 3 Zrotation Yrotation Xrotation
			JOINT Spine2
			{
				OFFSET 0.012244 0.139499 0.029894
				CHANNELS 3 Zrotation Yrotation Xrotation
				JOINT Spine3
				{
					OFFSET -0.002556 0.056561 0.009225
					CHANNELS 3 Zrotation Yrotation Xrotation
					JOINT Spine3_Neck
					{
						OFFSET 0.000000 0.000000 0.000000
						CHANNELS 3 Zrotation Yrotation Xrotation
						JOINT Neck
						{
							OFFSET -0.005205 0.217920 -0.024551
							CHANNELS 3 Zrotation Yrotation Xrotation
							End Site #name: Head
							{
								OFFSET 0.002365 0.091850 0.046637
							}
						}
					}
					JOINT Spine3_L_Collar
					{
						OFFSET 0.000000 0.000000 0.000000
						CHANNELS 3 Zrotation Yrotation Xrotation
						JOINT L_Collar
						{
							OFFSET 0.072225 0.116603 -0.009480
							CHANNELS 3 Zrotation Yrotation Xrotation
							JOINT L_Shoulder
							{
								OFFSET 0.115937 -0.058643 -0.021018
								CHANNELS 3 Zrotation Yrotation Xrotation
								JOINT L_Elbow
								{
									OFFSET 0.021994 -0.254722 -0.024492
									CHANNELS 3 Zrotation Yrotation Xrotation
									End Site #name: L_Wrist
									{
										OFFSET 0.048810 -0.240214 0.103329
									}
								}
							}
						}
					}
					JOINT Spine3_R_Collar
					{
						OFFSET 0.000000 0.000000 0.000000
						CHANNELS 3 Zrotation Yrotation Xrotation
						JOINT R_Collar
						{
							OFFSET -0.073372 0.120704 -0.024611
							CHANNELS 3 Zrotation Yrotation Xrotation
							JOINT R_Shoulder
							{
								OFFSET -0.108089 -0.054969 -0.020504
								CHANNELS 3 Zrotation Yrotation Xrotation
								JOINT R_Elbow
								{
									OFFSET -0.033684 -0.260739 0.009889
									CHANNELS 3 Zrotation Yrotation Xrotation
									End Site #name: R_Wrist
									{
										OFFSET -0.067980 -0.232763 0.118463
									}
								}
							}
						}
					}
				}
			}
		}
	}
}
MOTION
Frames: 8
Frame Time: 0.041667
0.000000 0.974134 0.000000 -3.145961 -3.367418 9.409815 0.000000 0.000000 0.000000 -8.555165 -1.429404 -7.019808 13.061723 -0.660583 -2.672191 -1.701937 -10.888842 -2.629528 0.000000 0.000000 0.000000 7.709264 1.357920 -7.993951 -5.635682 0.299769 -5.200458 2.388613 9.199876 -0.599192 0.000000 0.000000 0.000000 6.758595 1.003654 -17.375279 -8.123976 4.370437 23.108151 5.098355 3.544272 -16.409540 0.000000 0.000000 0.000000 -2.519043 1.355276 30.101954 0.000000 0.000000 0.000000 52.262566 -2.997732 10.333969 29.038590 -1.229620 -7.484798 8.261236 4.941505 12.653748 0.000000 0.000000 0.000000 -53.213290 2.754632 12.245351 -16.915654 -0.739655 6.167774 -8.854541 -7.131279 15.194302 
0.000001 0.974134 -0.000000 -3.145804 -3.367399 9.409452 0.000000 0.000000 0.000000 -8.555381 -1.429378 -7.019812 13.060618 -0.660585 -2.670963 -1.701208 -10.888566 -2.630791 0.000000 0.000000 0.000000 7.709225 1.357955 -7.994064 -5.635971 0.299862 -5.200430 2.388456 9.199209 -0.598970 0.000000 0.000000 0.000000 6.758112 1.003610 -17.374626 -8.123944 4.370439 23.107826 5.098749 3.544494 -16.409282 0.000000 0.000000 0.000000 -2.518895 1.355120 30.102353 0.000000 0.000000 0.000000 52.262539 -2.997795 10.334119 29.038413 -1.229564 -7.486021 8.259378 4.941021 12.652636 0.000000 0.000000 0.000000 -53.212873 2.754568 12.245310 -16.915955 -0.739625 6.166703 -8.854777 -7.131642 15.195564 
0.000069 0.974197 0.000161 -3.132340 -3.372502 9.353397 0.000000 0.000000 0.000000 -8.581608 -1.401612 -6.932347 13.067879 -0.655754 -2.708304 -1.698084 -10.905354 -2.643018 0.000000 0.000000 0.000000 7.689302 1.336473 -7.901818 -5.637663 0.295284 -5.244237 2.387882 9.219815 -0.611226 0.000000 0.000000 0.000000 6.722929 1.008250 -17.384326 -8.086748 4.380015 23.271474 5.093934 3.546665 -16.498462 0.000000 0.000000 0.000000 -2.507491 1.343571 30.063298 0.000000 0.000000 0.000000 52.234048 -2.987821 10.343143 29.059256 -1.222868 -7.520159 8.279069 4.946887 12.656117 0.000000 0.000000 0.000000 -53.164872 2.729915 12.261810 -16.993076 -0.741498 6.121596 -8.829899 -7.127167 15.217221 
0.000361 0.973993 0.000104 -3.129625 -3.358904 9.372415 0.000000 0.000000 0.000000 -8.588464 -1.410888 -6.963439 13.062661 -0.656874 -2.697473 -1.695207 -10.911980 -2.650814 0.000000 0.000000 0.000000 7.687733 1.347454 -7.948676 -5.657999 0.302384 -5.200127 2.372491 9.193476 -0.626482 0.000000 0.000000 0.000000 6.747326 1.006398 -17.385235 -8.103251 4.379416 23.227094 5.096722 3.558454 -16.473229 0.000000 0.000000 0.000000 -2.540855 1.369082 30.058990 0.000000 0.000000 0.000000 52.236583 -2.980041 10.360817 29.014186 -1.218208 -7.547473 8.320160 4.959663 12.666448 0.000000 0.000000 0.000000 -53.156562 2.729381 12.249731 -16.969895 -0.741878 6.108878 -8.822199 -7.124995 15.217834 
0.000362 0.973994 0.000104 -3.129637 -3.358859 9.372473 0.000000 0.000000 0.000000 -8.588462 -1.410917 -6.963531 13.060948 -0.656854 -2.696124 -1.694324 -10.911940 -2.652559 0.000000 0.000000 0.000000 7.687728 1.347464 -7.948674 -5.658124 0.302449 -5.199309 2.372188 9.193639 -0.627282 0.000000 0.000000 0.000000 6.747357 1.006394 -17.385218 -8.103348 4.379475 23.227020 5.096807 3.558475 -16.473233 0.000000 0.000000 0.000000 -2.540918 1.369108 30.059515 0.000000 0.000000 0.000000 52.235838 -2.979031 10.361134 29.014769 -1.218188 -7.547619 8.319190 4.959183 12.664849 0.000000 0.000000 0.000000 -53.156376 2.728405 12.250156 -16.969833 -0.742101 6.110543 -8.821875 -7.124050 15.214505 
0.000757 0.973945 -0.000145 -3.140078 -3.331672 9.371090 0.000000 0.000000 0.000000 -8.527927 -1.403836 -6.934943 12.960158 -0.638954 -2.789188 -1.736328 -10.994866 -2.620450 0.000000 0.000000 0.000000 7.667594 1.372355 -8.051916 -5.673881 0.325138 -5.007918 2.347078 9.095964 -0.623162 0.000000 0.000000 0.000000 6.827675 0.995024 -17.349168 -8.097204 4.370369 23.188996 5.099819 3.557292 -16.398351 0.000000 0.000000 0.000000 -2.579772 1.397677 29.791218 0.000000 0.000000 0.000000 52.290216 -2.986339 10.374507 28.980591 -1.220815 -7.534414 8.306475 4.956104 12.672919 0.000000 0.000000 0.000000 -53.100963 2.704220 12.247266 -16.990547 -0.739837 6.179166 -8.716134 -7.095646 15.245847 
0.000678 0.973928 -0.000194 -3.155697 -3.349864 9.361226 0.000000 0.000000 0.000000 -8.509149 -1.395216 -6.905003 12.960167 -0.634194 -2.822734 -1.734159 -10.971438 -2.614003 0.000000 0.000000 0.000000 7.693105 1.374624 -8.060349 -5.682227 0.329308 -4.977761 2.344177 9.107636 -0.635021 0.000000 0.000000 0.000000 6.817540 0.992548 -17.327179 -8.078111 4.361845 23.176907 5.116992 3.569415 -16.389806 0.000000 0.000000 0.000000 -2.571991 1.391883 29.774101 0.000000 0.000000 0.000000 52.312954 -2.970311 10.401809 28.945101 -1.216746 -7.555230 8.317491 4.955113 12.632715 0.000000 0.000000 0.000000 -53.106124 2.696307 12.261761 -17.002994 -0.739888 6.158789 -8.706778 -7.090564 15.233787 
0.000677 0.973928 -0.000194 -3.155699 -3.349904 9.361204 0.000000 0.000000 0.000000 -8.509115 -1.395192 -6.904912 12.960062 -0.634187 -2.822738 -1.734092 -10.971359 -2.614095 0.000000 0.000000 0.000000 7.693151 1.374690 -8.060724 -5.682325 0.329375 -4.976818 2.343966 9.107720 -0.635554 0.000000 0.000000 0.000000 6.817543 0.992569 -17.327363 -8.078245 4.361951 23.177108 5.117216 3.569454 -16.389793 0.000000 0.000000 0.000000 -2.571956 1.391854 29.774119 0.000000 0.000000 0.000000 52.313322 -2.970955 10.401578 28.944346 -1.216692 -7.554060 8.319286 4.955554 12.633422 0.000000 0.000000 0.000000 -53.106209 2.696364 12.261761 -17.002782 -0.739998 6.159547 -8.709480 -7.092130 15.237865 
